<svg width="24" height="24" viewBox="0 0 24 24" fill="none" xmlns="http://www.w3.org/2000/svg">
<path d="M20.447 20H16.921V14.601C16.921 13.395 16.899 12.166 15.496 12.166C14.066 12.166 13.828 13.34 13.828 14.521V19H10.324V9.675H13.828V10.949C13.828 10.949 14.536 9.498 16.921 9.498C19.306 9.498 20.447 11.126 20.447 14.149V20Z" fill="#0077B5"/>
<path d="M4.447 7.498C5.564 7.498 6.447 6.615 6.447 5.498C6.447 4.381 5.564 3.498 4.447 3.498C3.33 3.498 2.447 4.381 2.447 5.498C2.447 6.615 3.33 7.498 4.447 7.498Z" fill="#0077B5"/>
<path d="M6.697 20H3.171V9.675H6.697V20Z" fill="#0077B5"/>
</svg>
